<svg id="visual" viewBox="0 0 900 600" width="900" height="600" xmlns="http://www.w3.org/2000/svg" xmlns:xlink="http://www.w3.org/1999/xlink" version="1.1"><rect x="0" y="0" width="900" height="600" fill="#fff"></rect><path d="M0 551L15 544.7C30 538.3 60 525.7 90 520.2C120 514.7 150 516.3 180 524.2C210 532 240 546 270 547.3C300 548.7 330 537.3 360 531.5C390 525.7 420 525.3 450 532.5C480 539.7 510 554.3 540 561.3C570 568.3 600 567.7 630 560C660 552.3 690 537.7 720 533.2C750 528.7 780 534.3 810 538.3C840 542.3 870 544.7 885 545.8L900 547L900 601L885 601C870 601 840 601 810 601C780 601 750 601 720 601C690 601 660 601 630 601C600 601 570 601 540 601C510 601 480 601 450 601C420 601 390 601 360 601C330 601 300 601 270 601C240 601 210 601 180 601C150 601 120 601 90 601C60 601 30 601 15 601L0 601Z" fill="#0066FF" stroke-linecap="round" stroke-linejoin="miter"></path></svg>